<svg id="visual" viewBox="0 0 960 540" width="960" height="540" xmlns="http://www.w3.org/2000/svg" xmlns:xlink="http://www.w3.org/1999/xlink" version="1.1"><path d="M0 55L160 60L320 50L480 55L640 28L800 28L960 71L960 0L800 0L640 0L480 0L320 0L160 0L0 0Z" fill="#9c5ff9"></path><path d="M0 93L160 82L320 120L480 104L640 93L800 60L960 98L960 69L800 26L640 26L480 53L320 48L160 58L0 53Z" fill="#9c6bf8"></path><path d="M0 212L160 206L320 233L480 163L640 179L800 141L960 163L960 96L800 58L640 91L480 102L320 118L160 80L0 91Z" fill="#9c77f7"></path><path d="M0 347L160 303L320 395L480 341L640 379L800 325L960 320L960 161L800 139L640 177L480 161L320 231L160 204L0 210Z" fill="#9e81f5"></path><path d="M0 395L160 357L320 428L480 374L640 422L800 363L960 374L960 318L800 323L640 377L480 339L320 393L160 301L0 345Z" fill="#a08bf2"></path><path d="M0 476L160 482L320 509L480 482L640 509L800 438L960 492L960 372L800 361L640 420L480 372L320 426L160 355L0 393Z" fill="#a394ef"></path><path d="M0 541L160 541L320 541L480 541L640 541L800 541L960 541L960 490L800 436L640 507L480 480L320 507L160 480L0 474Z" fill="#a79deb"></path></svg>